# xmcd
# 
# Track frame offsets:
#     182
#     43730
#     80307
#     125165
#     136590
#     154037
# 
# Disc length: 2289
# 
# Revision: 2
# Processed by: cddbd v1.5.2PL0 Copyright (c) Steve Scherf et al.
# Submitted via: BonkEnc v1.0.8
# 
DISCID=4508ef06
DTITLE=Mitchel Forman - Only A Memory
DYEAR=1982
DGENRE=Contemporary Jazz
TTITLE0=What Did You Think It Was That Needed To Be Loved, Anyway ?
TTITLE1=The Police Now You See It, Know
TTITLE2=You Don't
TTITLE3=Ramona's Fantasy
TTITLE4=Replease
TTITLE5=Only A Memory
EXTD=
EXTT0=
EXTT1=
EXTT2=
EXTT3=
EXTT4=
EXTT5=
PLAYORDER=
